# xmcd
#
# Track frame offsets:
#   150
#   13977
#   32311
#   43715
#   62109
#   79402
#   93306
#   108174
#   125411
#   139285
#   158560
#   171515
#   184527
#   204511
#   219671
#   236696
#   248767
#   266580
#   284420
#   299249
#
# Disc length: 4188 seconds
#
# Revision: 0
# Processed by: cddbd v1.5.1PL0 Copyright (c) Steve Scherf et al.
# Submitted via: Media_Universe 3.0
#
DISCID=2d105a14
DTITLE=John Michael Montgomery - Brand New Me and Kickin It Up
DYEAR=1900
DGENRE=Country
TTITLE0=Brand New Me
TTITLE1=Bus To Birmingham
TTITLE2=Weekend Superstar
TTITLE3=Thanks For The G Chord
TTITLE4=Even Then
TTITLE5=Thats What I Like About You
TTITLE6=Thats Not her Picture
TTITLE7=The Little Girl
TTITLE8=Real Love
TTITLE9=I Love It All
TTITLE10=Be My Baby Tonight
TTITLE11=Full Time Love
TTITLE12=I Swear
TTITLE13=We Dont Need A Band To Dance
TTITLE14=All In My Heart
TTITLE15=Friday At Five
TTITLE16=Rope The Moon
TTITLE17=If You've Got Love
TTITLE18=Oh How She Shines
TTITLE19=Kickin It Up
EXTD=
EXTT0=
EXTT1=
EXTT2=
EXTT3=
EXTT4=
EXTT5=
EXTT6=
EXTT7=
EXTT8=
EXTT9=
EXTT10=
EXTT11=
EXTT12=
EXTT13=
EXTT14=
EXTT15=
EXTT16=
EXTT17=
EXTT18=
EXTT19=
PLAYORDER=
